<?xml version="1.0" standalone="no"?>
<!DOCTYPE svg PUBLIC "-//W3C//DTD SVG 20010904//EN"
 "http://www.w3.org/TR/2001/REC-SVG-20010904/DTD/svg10.dtd">
<svg version="1.0" xmlns="http://www.w3.org/2000/svg"
 width="400.000000pt" height="400.000000pt" viewBox="0 0 400.000000 400.000000"
 preserveAspectRatio="xMidYMid meet">
<metadata>
Created by potrace 1.15, written by Peter Selinger 2001-2017
</metadata>
<g transform="translate(0.000000,400.000000) scale(0.100000,-0.100000)"
fill="#000000" stroke="none">
<path d="M1 3608 c1 -353 2 -393 17 -405 16 -12 16 -13 -1 -7 -15 5 -17 -1
-17 -55 l0 -61 38 3 c20 2 44 0 53 -4 8 -4 22 -3 30 2 12 7 11 9 -3 9 -15 0
-16 7 -11 49 5 48 5 49 -25 56 -35 7 -59 30 -42 40 5 3 10 0 10 -8 0 -23 47
-28 53 -5 3 10 1 16 -4 12 -5 -3 -9 1 -9 10 0 27 12 45 26 39 8 -3 14 1 14 8
0 11 2 11 10 -1 8 -12 10 -12 16 3 3 9 12 17 20 17 21 0 17 -18 -5 -25 -37
-12 -44 -31 -30 -80 14 -47 18 -49 69 -32 8 3 9 -10 3 -33 -5 -20 -23 -28 -23
-10 0 14 -22 12 -44 -5 -16 -12 -17 -18 -8 -27 9 -9 15 -9 24 0 19 19 38 14
38 -9 0 -18 -4 -20 -25 -15 -14 4 -25 2 -25 -4 0 -6 25 -10 58 -9 43 0 52 2
35 9 -15 6 -20 15 -16 30 3 11 10 23 16 27 5 3 7 1 4 -4 -4 -6 1 -14 10 -17 9
-4 20 -1 25 6 12 19 10 26 -9 31 -14 4 -12 5 5 6 14 1 22 -5 22 -14 0 -10 8
-15 23 -14 43 4 57 -1 51 -16 -4 -10 0 -15 11 -15 9 0 13 4 10 10 -3 5 -1 18
4 27 8 14 10 15 11 3 0 -13 1 -13 10 0 5 8 7 23 4 32 -3 10 4 27 15 40 15 15
21 17 21 7 0 -12 2 -12 11 1 8 11 12 12 16 3 2 -7 13 -13 23 -13 10 0 20 6 23
13 3 8 9 6 20 -8 l16 -20 -3 20 c-2 12 -12 21 -24 23 -26 4 -29 33 -7 56 12
12 14 20 5 36 -9 16 -8 20 6 20 9 0 18 -9 21 -21 3 -12 11 -18 19 -15 8 3 14
1 14 -3 0 -5 -12 -14 -27 -19 -27 -10 -28 -11 -5 -17 24 -8 29 -21 10 -27 -7
-3 -8 -9 -3 -19 5 -8 8 -22 7 -31 -3 -14 4 -18 25 -18 35 0 73 -38 52 -51 -7
-4 -10 -11 -7 -15 7 -6 38 19 38 30 0 3 -9 15 -20 26 -21 21 -27 50 -11 50 5
0 11 -7 15 -15 6 -16 26 -21 26 -6 0 6 -12 22 -26 38 -21 22 -27 25 -34 13 -6
-8 -10 -21 -10 -27 0 -7 -8 -13 -17 -13 -11 0 -14 3 -7 8 14 9 15 43 1 60 -12
15 -6 15 30 0 15 -6 32 -10 36 -9 5 1 11 -8 14 -19 3 -13 11 -19 19 -16 11 4
13 -5 11 -37 -1 -23 2 -43 8 -45 14 -4 13 80 -2 111 -10 20 -11 27 -1 27 21 0
-4 17 -44 30 -39 12 -50 36 -23 46 19 8 48 -15 41 -31 -3 -8 2 -11 15 -8 11 3
19 0 19 -7 0 -8 9 -10 27 -5 36 9 38 12 23 30 -7 8 -20 13 -29 10 -9 -3 -21 3
-28 14 -10 16 -9 18 8 14 10 -3 26 0 34 7 9 7 18 10 22 6 3 -3 1 -6 -5 -6 -7
0 -12 -7 -12 -15 0 -8 7 -15 15 -15 8 0 15 5 15 10 0 6 7 10 15 10 23 0 18
-26 -10 -56 -14 -15 -25 -31 -25 -35 0 -8 43 -14 65 -9 6 1 27 2 47 2 21 1 35
4 33 8 -6 10 24 22 36 15 4 -3 11 6 15 20 6 26 18 32 29 15 3 -5 13 -10 21
-10 8 0 14 5 14 10 0 6 -9 10 -20 10 -11 0 -20 4 -20 10 0 6 -9 6 -26 -1 -34
-12 -36 -9 -19 24 8 15 11 27 7 27 -3 0 -1 5 6 12 9 9 8 14 -2 22 -9 7 -11 18
-6 31 7 19 7 19 14 -2 4 -13 12 -23 17 -23 6 0 8 4 4 9 -3 5 -1 12 5 16 6 4 8
10 5 15 -3 5 0 12 6 16 8 4 7 9 -2 15 -10 6 -5 9 16 10 17 1 42 3 58 5 15 1
27 -1 27 -7 0 -5 -7 -9 -15 -9 -8 0 -15 -6 -15 -14 0 -8 -16 -23 -35 -35 -27
-15 -34 -26 -33 -46 2 -23 6 -25 38 -20 19 2 26 2 15 -2 -19 -5 -35 -21 -35
-35 0 -4 12 0 28 8 15 7 33 14 40 14 6 0 12 9 12 21 0 16 4 19 20 14 19 -6 20
-3 14 22 -4 15 -11 32 -15 37 -15 17 -10 36 10 36 11 0 26 -9 34 -20 8 -11 16
-18 18 -15 3 2 5 -4 5 -14 0 -12 -6 -17 -18 -13 -27 7 -22 -13 9 -34 19 -12
44 -17 83 -16 30 1 67 -1 83 -4 48 -10 29 -24 -30 -22 -32 1 -71 -4 -87 -11
-20 -8 -32 -9 -40 -1 -7 7 -6 10 3 10 7 0 9 5 6 11 -4 6 -13 8 -21 5 -7 -3
-16 -1 -19 4 -10 16 -28 11 -21 -5 4 -10 -1 -15 -16 -15 -17 0 -19 -3 -10 -12
6 -6 20 -12 30 -13 18 -1 57 -32 57 -44 0 -3 15 -5 33 -3 18 2 32 -1 32 -7 0
-6 5 -11 10 -11 6 0 10 9 10 20 0 13 -7 20 -20 20 -12 0 -20 7 -20 16 0 10 7
14 23 12 17 -2 23 -11 25 -35 3 -27 8 -33 27 -33 13 0 26 4 29 8 3 5 19 7 35
6 17 -1 33 1 36 5 8 14 50 4 47 -10 -3 -11 -1 -11 9 -2 10 10 9 15 -1 28 -8 9
-8 15 -2 15 6 0 14 -4 17 -10 9 -15 25 -12 25 4 0 8 13 16 30 18 17 3 30 0 30
-6 0 -6 7 2 15 18 18 34 12 45 -14 29 -16 -10 -20 -9 -24 8 -3 10 -1 19 4 19
5 0 9 -6 9 -12 0 -8 3 -9 8 -3 4 6 16 10 27 10 11 0 20 5 20 12 0 13 61 72
110 106 16 12 32 24 35 27 3 3 22 16 42 30 21 14 38 28 38 33 0 4 5 7 11 7 10
0 40 22 104 77 12 10 35 37 52 61 l31 44 43 -61 c24 -34 46 -61 50 -61 4 0 28
-17 52 -37 24 -21 59 -49 76 -63 148 -116 201 -174 201 -223 0 -9 4 -19 10
-22 6 -3 10 -16 10 -29 0 -18 -10 -25 -55 -39 -31 -9 -64 -17 -75 -17 -10 0
-22 -4 -25 -10 -3 -5 -17 -10 -30 -10 -13 0 -27 -4 -30 -10 -3 -5 -15 -10 -25
-10 -31 0 -94 -37 -127 -75 l-31 -35 -19 37 c-18 36 -49 61 -37 29 3 -9 1 -16
-5 -16 -6 0 -11 -8 -11 -18 0 -11 -9 -30 -21 -43 -13 -15 -20 -18 -18 -9 4 23
-22 69 -44 76 -34 11 -37 -10 -7 -43 32 -34 37 -52 18 -71 -9 -9 -9 -15 -1
-23 13 -13 55 14 81 52 13 19 15 18 55 -20 57 -54 87 -79 100 -85 8 -3 5 -9
-8 -17 -18 -12 -45 -38 -72 -73 -7 -8 -13 -22 -13 -30 0 -8 -4 -18 -10 -21 -5
-3 -10 -1 -10 5 0 6 -8 9 -18 5 -14 -4 -32 8 -64 40 -42 41 -88 60 -88 35 0
-5 6 -10 13 -10 7 0 26 -13 41 -29 28 -29 28 -51 0 -51 -16 0 -18 -9 -4 -30 8
-13 11 -12 23 4 14 19 43 14 32 -5 -10 -15 5 -10 33 12 29 23 44 9 18 -17 -9
-8 -16 -19 -16 -24 0 -14 30 -40 45 -40 12 0 35 -29 35 -43 0 -3 -10 -8 -22
-11 -20 -5 -88 -82 -88 -99 0 -3 8 -4 18 -2 9 1 11 0 5 -2 -7 -3 -13 -17 -13
-33 0 -16 -4 -31 -9 -34 -5 -3 -11 -15 -14 -26 -9 -34 20 -4 35 35 6 19 15 32
20 29 5 -3 32 20 62 50 29 31 56 56 60 56 19 0 0 -35 -43 -75 -28 -26 -47 -53
-45 -60 3 -8 -4 -18 -15 -25 -24 -12 -29 -35 -6 -26 10 3 15 -1 15 -12 0 -9 7
-26 15 -36 18 -23 19 -10 6 47 -8 31 -6 39 9 47 28 15 32 12 18 -12 -19 -35
-20 -58 -2 -58 11 0 14 6 9 20 -8 26 10 49 33 44 10 -3 34 10 56 31 43 38 61
43 70 20 3 -9 0 -15 -9 -15 -17 0 -58 -57 -50 -70 3 -5 0 -7 -8 -4 -9 3 -22
-5 -34 -21 -10 -15 -26 -34 -35 -43 -22 -20 -23 -32 -3 -32 10 0 15 -9 14 -27
0 -19 -3 -23 -7 -13 -10 21 -58 25 -66 5 -3 -8 -2 -15 2 -16 4 0 20 -2 37 -4
36 -5 97 37 88 60 -4 12 -8 13 -20 4 -10 -9 -17 -9 -25 -1 -9 9 -7 12 8 13 10
0 36 2 58 3 23 1 43 9 51 19 7 9 15 17 19 17 4 0 13 6 20 13 7 6 32 29 55 50
22 21 41 42 41 48 0 6 8 6 20 -1 25 -13 22 -26 -30 -145 -43 -96 -48 -126 -26
-144 10 -9 17 -7 27 5 17 21 37 55 45 77 3 9 10 17 15 17 5 0 9 4 9 10 0 5 20
39 44 74 24 36 50 81 57 100 l13 36 41 -44 c45 -49 94 -118 112 -156 43 -93
57 -127 54 -142 -1 -9 3 -19 9 -23 5 -3 10 -21 10 -40 0 -19 4 -36 8 -39 11
-6 15 -106 5 -106 -9 1 -89 29 -136 48 -16 7 -41 12 -57 12 -16 0 -32 5 -35
10 -3 6 -40 10 -81 10 -59 0 -76 -3 -81 -16 -5 -13 -15 -15 -53 -10 -26 4 -55
4 -64 0 -22 -9 -20 -34 3 -34 11 0 23 -5 26 -10 3 -6 13 -10 22 -10 24 0 153
-58 165 -75 4 -5 10 -6 14 -3 4 4 19 -1 34 -12 15 -11 39 -24 54 -30 25 -9 37
-40 16 -40 -5 0 -10 3 -10 8 0 4 -26 20 -58 35 -31 16 -69 35 -85 42 -15 8
-34 12 -42 9 -8 -4 -15 -2 -15 2 0 5 -29 18 -65 29 -36 10 -65 23 -65 27 0 4
-8 8 -18 8 -10 0 -23 5 -29 11 -20 20 -45 2 -41 -28 2 -21 14 -32 53 -52 28
-14 52 -28 55 -32 3 -3 15 -9 27 -13 20 -6 136 -71 220 -123 38 -23 34 -37 -6
-22 -36 14 -157 74 -210 105 -37 22 -47 24 -69 14 -23 -10 -24 -9 -12 5 14 17
6 32 -20 35 -51 7 -53 -19 -5 -66 20 -19 39 -34 43 -34 5 0 18 -11 30 -25 12
-14 28 -25 35 -25 8 0 24 -13 37 -30 13 -16 28 -30 35 -30 6 0 22 -11 35 -25
13 -14 29 -25 37 -25 7 0 13 -4 13 -10 0 -5 16 -16 35 -25 84 -41 69 -68 -30
-54 -39 6 -83 10 -100 11 -16 0 -35 5 -42 10 -18 14 -73 -12 -73 -34 0 -11 8
-18 18 -18 10 0 22 -3 26 -7 9 -9 77 -33 96 -33 8 0 27 -6 42 -14 15 -8 40
-17 57 -21 17 -4 31 -9 31 -11 0 -20 -195 -154 -223 -154 -7 0 -21 -6 -32 -14
-20 -13 -90 -31 -112 -27 -6 1 -14 -3 -18 -9 -3 -5 -26 -10 -50 -10 -24 0 -56
-5 -71 -10 -33 -13 -54 1 -35 23 6 8 9 22 5 31 -3 9 -1 16 5 16 6 0 11 8 11
18 0 10 3 22 7 26 11 11 33 148 28 174 -3 12 -7 33 -10 47 -7 34 -22 32 -23
-2 0 -32 -10 -79 -22 -108 -4 -11 -15 -40 -24 -65 -9 -25 -20 -52 -26 -60 -12
-19 -25 -6 -15 17 5 10 9 23 10 28 0 6 4 18 8 28 17 43 20 53 18 70 -1 9 3 17
10 17 8 0 10 12 5 40 -4 25 -2 40 4 40 5 0 10 9 10 21 0 11 -4 18 -9 15 -5 -4
-11 -1 -13 6 -6 17 -28 0 -28 -22 0 -10 -5 -22 -10 -25 -6 -3 -10 -17 -10 -30
0 -13 -7 -30 -15 -39 -8 -8 -15 -20 -15 -26 0 -16 -38 -98 -49 -105 -5 -3 -13
-1 -16 5 -6 10 6 40 57 146 5 11 11 40 13 63 1 24 7 46 12 50 5 3 15 26 22 51
25 89 25 90 4 90 -16 0 -53 -31 -53 -45 0 -3 -8 -17 -17 -32 -10 -14 -19 -35
-20 -46 -2 -12 -11 -29 -19 -38 -9 -10 -13 -23 -9 -28 3 -6 1 -11 -4 -11 -6 0
-11 -6 -11 -12 0 -7 -9 -24 -19 -37 -10 -14 -17 -31 -14 -38 3 -7 1 -13 -4
-13 -11 0 -38 -50 -35 -63 1 -4 -3 -7 -10 -6 -25 3 -38 -1 -38 -12 0 -7 -8
-18 -17 -25 -17 -12 -17 -13 1 -20 10 -4 21 -3 25 2 3 5 14 10 25 11 13 1 15
-2 7 -10 -15 -15 -14 -27 2 -27 18 0 62 -38 54 -46 -3 -3 -12 -2 -19 2 -13 8
-88 13 -88 6 0 -7 34 -37 38 -33 6 5 82 -70 82 -81 0 -4 -1 -11 -2 -15 -4 -10
-68 -12 -68 -1 0 4 -9 8 -20 8 -11 0 -20 5 -20 11 0 5 -4 8 -9 5 -4 -3 -19 6
-31 19 -26 28 -50 33 -50 11 0 -8 25 -32 55 -53 57 -39 72 -73 34 -73 -12 0
-39 14 -61 31 -21 17 -41 29 -44 27 -7 -8 7 -38 18 -38 15 0 58 -48 58 -64 0
-19 -26 -11 -57 17 -27 24 -43 15 -25 -13 10 -16 10 -24 0 -40 -14 -22 -24
-25 -32 -11 -4 5 -1 11 6 13 10 4 10 10 1 31 -7 15 -10 40 -7 57 4 17 1 36 -6
45 -6 8 -8 19 -4 26 4 7 8 27 10 45 2 25 0 32 -11 28 -21 -8 -45 20 -39 44 4
14 -4 28 -30 48 -39 32 -51 63 -17 44 13 -7 22 -7 26 0 8 13 -4 32 -15 25 -5
-3 -19 -1 -30 5 -17 9 -20 8 -20 -10 0 -11 -4 -20 -10 -20 -17 0 -12 -67 6
-74 25 -9 56 -7 49 4 -3 6 1 7 9 4 13 -5 13 -8 1 -20 -7 -8 -21 -14 -30 -14
-9 0 -13 -5 -9 -11 3 -6 17 -8 30 -5 14 4 24 2 24 -4 0 -5 -11 -10 -25 -10
-18 0 -25 -5 -25 -19 0 -11 5 -23 10 -26 6 -3 10 0 10 7 0 8 3 9 8 3 4 -6 21
-17 37 -24 23 -11 26 -15 13 -18 -10 -3 -18 -13 -18 -24 0 -11 -4 -18 -9 -14
-12 7 4 -52 18 -69 5 -6 13 -38 18 -70 8 -59 30 -86 39 -49 7 25 101 72 160
80 24 3 44 10 44 14 0 20 82 -11 101 -39 8 -10 22 -21 33 -25 14 -6 17 -13 11
-35 -3 -15 -14 -35 -22 -45 -29 -32 -146 -77 -238 -92 -48 -8 -62 -13 -143
-53 -35 -18 -65 -32 -68 -32 -2 0 -4 11 -4 24 0 14 -4 28 -10 31 -5 3 -10 14
-10 23 -1 27 -34 89 -46 85 -6 -2 -11 3 -11 12 0 18 -84 188 -95 193 -10 5
-10 58 1 105 6 24 5 39 -2 44 -6 3 -7 1 -3 -5 5 -8 -1 -12 -14 -12 -12 0 -18
5 -15 10 3 5 -1 10 -9 10 -21 0 -20 -13 2 -33 15 -14 17 -28 14 -77 -3 -37 0
-60 6 -60 5 0 13 -16 16 -35 4 -19 11 -35 16 -35 6 0 10 -6 10 -14 0 -8 6 -21
14 -28 7 -8 17 -24 20 -36 4 -12 12 -22 17 -22 5 0 9 -7 9 -16 0 -9 7 -31 16
-50 9 -19 14 -40 11 -49 -5 -12 -63 -43 -92 -49 -5 -1 -16 -5 -24 -10 -15 -10
-158 -9 -174 1 -6 4 -33 5 -60 4 -27 -1 -55 3 -63 10 -11 9 -47 10 -134 5 -66
-4 -127 -9 -135 -12 -10 -4 -15 0 -15 14 0 11 -8 22 -20 25 -11 3 -20 10 -20
16 0 9 5 9 20 1 32 -17 44 27 35 135 -5 50 -9 104 -10 120 -2 38 -15 87 -27
101 -5 7 -23 11 -41 10 -18 -2 -35 2 -40 8 -10 14 -39 -23 -32 -41 3 -10 -3
-12 -23 -7 -36 9 -43 14 -36 25 3 5 10 7 15 4 5 -4 9 0 9 7 0 20 24 68 34 68
4 0 6 -6 3 -14 -4 -10 8 -18 39 -26 48 -14 56 -11 61 20 2 15 -3 20 -20 20
-16 0 -18 3 -8 9 7 5 10 14 7 20 -4 6 -12 9 -17 6 -5 -4 -19 -8 -31 -10 -16
-4 -19 -2 -10 7 20 20 13 28 -18 22 -23 -5 -30 -3 -30 10 0 9 7 16 15 16 11 0
15 11 15 39 0 26 5 41 16 45 8 3 12 11 9 17 -4 6 -13 8 -20 5 -8 -3 -19 2 -25
10 -7 8 -18 14 -25 14 -8 0 -15 6 -18 13 -2 7 -8 8 -13 3 -5 -5 -4 -11 4 -13
20 -8 14 -25 -7 -18 -11 3 -22 1 -26 -5 -3 -6 -11 -8 -16 -4 -6 3 -16 -2 -24
-12 -22 -30 -37 -4 -36 65 0 80 -16 79 -21 -1 -4 -71 7 -98 39 -98 13 0 23 -4
23 -10 0 -14 -43 -13 -58 2 -9 9 -12 8 -12 -5 0 -9 -7 -17 -16 -17 -11 0 -14
-6 -9 -22 6 -22 5 -22 -9 -5 -9 12 -16 14 -21 7 -6 -10 -25 -5 -25 8 0 4 10
12 22 17 25 12 45 41 35 51 -3 4 -14 1 -23 -7 -13 -11 -18 -11 -21 -1 -7 19
-71 15 -76 -6 -4 -13 -5 -11 -6 6 -1 17 4 22 25 22 35 0 26 23 -12 31 -24 5
-26 7 -11 13 9 5 17 12 17 17 0 15 -40 10 -46 -6 -7 -16 -44 -21 -44 -6 0 5
-14 12 -30 16 -17 4 -27 11 -24 16 3 6 9 8 12 5 6 -7 32 13 32 25 0 5 -3 8 -7
7 -5 -1 -18 3 -31 10 -12 7 -27 10 -32 7 -6 -3 -10 2 -10 12 0 10 -5 35 -11
56 -8 31 -13 36 -24 27 -17 -14 -38 -3 -31 16 3 7 1 16 -4 19 -6 4 -10 -7 -10
-24 0 -17 5 -31 10 -31 6 0 10 -9 10 -20 0 -11 -4 -20 -10 -20 -16 0 -13 -257
3 -263 10 -4 10 -6 0 -6 -9 -1 -13 -19 -13 -56 0 -46 3 -55 18 -55 16 -1 16
-1 0 -14 -21 -15 -24 -71 -5 -80 10 -5 10 -7 0 -12 -10 -4 -13 -121 -13 -535
l0 -529 2000 0 2000 0 0 2000 0 2000 -2000 0 -2000 0 1 -392z m2624 -405 c8
-17 15 -36 15 -42 0 -6 3 -11 8 -11 4 0 16 -19 27 -43 11 -23 22 -44 26 -47 3
-3 20 -35 37 -71 25 -50 32 -79 32 -123 l0 -58 -67 6 c-38 3 -75 6 -83 6 -8 1
-24 19 -34 40 -10 22 -27 49 -38 60 -10 11 -16 24 -13 29 3 5 1 12 -5 16 -5 3
-10 33 -10 66 0 32 -2 59 -5 59 -3 0 -26 -16 -52 -36 -44 -34 -85 -56 -108
-59 -23 -4 -72 -17 -94 -26 -20 -8 -29 -5 -55 19 -17 16 -46 39 -63 51 -38 26
-41 37 -14 46 10 3 21 14 24 25 3 11 13 23 24 27 10 4 23 12 28 19 6 7 33 17
60 24 47 10 87 20 208 51 26 7 47 16 47 21 0 4 9 8 20 8 11 0 20 3 20 8 0 4
10 12 23 17 20 9 22 7 25 -20 2 -16 9 -44 17 -62z m381 77 c5 -5 78 -13 162
-17 117 -5 155 -3 167 7 8 7 17 11 19 9 2 -2 0 -44 -4 -94 -6 -91 2 -223 20
-326 13 -71 13 -109 0 -109 -5 0 -10 -9 -10 -20 0 -30 -42 -109 -61 -115 -18
-6 -61 14 -116 53 -17 12 -35 22 -40 22 -4 0 -35 14 -68 31 -51 27 -71 32
-130 32 -38 0 -64 2 -57 4 6 3 12 12 12 22 0 9 5 22 10 27 6 6 8 18 4 27 -5
13 -10 14 -27 5 -48 -24 -57 -28 -74 -28 -13 0 -14 3 -5 12 14 14 16 90 4 116
-5 9 -20 40 -33 67 -13 28 -26 52 -29 55 -3 3 -15 25 -28 50 -30 60 -45 83
-57 92 -13 10 42 55 77 63 15 4 30 11 33 16 8 12 218 12 231 -1z m-524 -443
c-5 -7 -12 -24 -15 -38 -8 -32 -74 -106 -84 -94 -5 4 -2 10 5 12 17 6 5 23
-16 23 -25 -1 -73 -46 -66 -63 3 -8 1 -18 -5 -22 -6 -3 -11 -19 -11 -34 0 -15
-3 -31 -7 -34 -10 -10 -33 42 -33 74 0 40 35 103 68 120 48 25 122 86 122 101
0 6 -10 0 -22 -13 -13 -14 -41 -33 -63 -43 -22 -10 -48 -25 -57 -33 -9 -8 -21
-12 -27 -9 -12 8 -41 -32 -41 -56 0 -21 -16 -24 -23 -5 -9 25 23 82 56 99 48
24 77 35 100 37 8 0 24 10 37 21 13 11 31 20 42 20 10 0 18 6 18 13 0 7 6 19
13 26 10 10 13 2 15 -39 2 -28 -1 -57 -6 -63z m301 -70 c67 0 76 -4 56 -24
-11 -11 -8 -82 6 -133 l6 -25 -98 2 -98 2 -1 63 c0 35 -4 77 -8 95 l-7 31 38
-6 c21 -3 68 -6 106 -5z m222 -68 c4 -5 12 -8 18 -6 7 2 28 -5 47 -16 156 -88
214 -117 234 -117 8 0 18 -4 21 -10 3 -5 19 -10 35 -10 l29 0 -39 -58 c-21
-32 -42 -76 -46 -98 -3 -21 -10 -43 -14 -49 -4 -5 -11 -30 -15 -55 -4 -25 -11
-49 -15 -55 -4 -5 -13 -26 -19 -45 -10 -30 -81 -101 -100 -100 -3 0 -25 27
-48 59 -42 57 -53 94 -33 106 6 3 10 15 10 27 0 32 30 86 71 130 22 22 39 42
39 44 0 2 -11 4 -25 4 -14 0 -25 5 -25 10 0 6 -18 10 -41 10 -49 0 -138 40
-179 81 -27 28 -30 37 -30 95 l0 64 59 0 c33 0 63 -5 66 -11z m-201 -155 c11
-4 33 -15 49 -26 15 -11 27 -16 27 -11 0 4 4 4 8 -2 10 -14 135 -75 154 -75 8
0 21 -7 28 -15 10 -13 10 -19 -4 -33 -9 -10 -16 -26 -16 -35 0 -9 -4 -18 -9
-22 -6 -3 -13 -26 -17 -50 -3 -25 -10 -45 -14 -45 -4 0 -11 -20 -14 -45 -4
-25 -11 -45 -17 -45 -5 0 -9 -6 -9 -14 0 -8 -10 -22 -22 -30 -25 -18 -42 -21
-33 -7 3 5 1 12 -5 16 -5 3 -10 24 -10 45 0 21 -4 42 -10 45 -5 3 -10 17 -10
31 0 13 -5 24 -11 24 -5 0 -7 5 -3 11 6 10 -41 116 -57 129 -4 3 -10 16 -14
28 -4 13 -13 31 -21 40 -37 43 -64 81 -64 91 0 11 51 8 94 -5z m661 -124 c3
-5 15 -10 26 -10 30 0 161 -141 271 -291 14 -20 52 -54 82 -75 31 -22 56 -42
56 -47 0 -4 -11 -12 -25 -17 -29 -11 -126 -105 -171 -164 -41 -55 -140 -165
-169 -187 -29 -24 -79 -44 -125 -53 -32 -5 -36 -3 -46 22 -11 28 -32 100 -40
142 -3 14 -9 34 -14 45 -5 11 -18 41 -29 66 -11 26 -36 60 -56 78 l-36 31 26
10 c15 6 30 10 35 10 5 0 10 6 13 13 2 7 -13 19 -37 28 -40 16 -60 39 -33 39
29 0 92 89 102 144 4 20 11 36 15 36 4 0 10 12 13 28 18 84 32 132 39 132 4 0
8 7 8 15 0 11 12 15 44 15 25 0 48 -4 51 -10z m-357 -367 c23 -23 47 -43 52
-43 19 0 -1 -25 -38 -48 -20 -13 -44 -37 -52 -55 -8 -17 -19 -32 -25 -34 -5
-1 -28 19 -50 46 -22 26 -49 52 -60 57 -11 5 -20 18 -20 28 0 10 9 24 20 30
38 21 85 75 86 98 0 22 1 22 22 -6 12 -16 41 -49 65 -73z m83 -154 c16 -11 29
-27 29 -35 0 -8 7 -17 15 -20 8 -4 15 -14 15 -24 0 -11 5 -22 10 -25 6 -3 10
-14 10 -24 0 -21 27 -114 42 -147 5 -11 8 -24 6 -30 -3 -10 43 -106 56 -115
17 -13 -6 -29 -40 -29 -19 0 -34 -5 -34 -11 0 -5 -4 -7 -10 -4 -10 6 -141 -60
-151 -77 -3 -5 -9 -9 -13 -8 -6 1 -47 -16 -122 -52 -11 -5 -42 -8 -70 -6 -44
3 -49 6 -53 28 -1 14 2 48 8 75 9 40 18 55 46 73 19 12 39 22 45 22 5 0 10 4
10 9 0 7 36 22 62 25 3 1 10 4 14 9 4 4 31 7 61 7 29 0 53 3 53 7 0 3 -17 21
-37 40 -21 18 -34 33 -30 33 5 0 -1 13 -12 29 -11 15 -23 47 -27 70 -4 23 -11
44 -15 47 -21 12 -6 53 37 102 25 28 50 52 56 52 5 0 23 -9 39 -21z m-328
-215 c20 -3 37 -10 37 -14 0 -9 10 -11 82 -13 25 -1 44 -5 42 -9 -3 -5 -12 -8
-20 -8 -8 0 -14 -4 -14 -9 0 -11 -14 -13 -83 -12 -27 0 -54 4 -60 9 -21 16
-77 20 -77 5 0 -7 11 -13 25 -13 14 0 33 -4 43 -9 33 -18 58 -24 110 -24 55
-1 69 -12 27 -23 -35 -9 -145 0 -153 12 -9 13 -76 44 -94 44 -8 0 -22 6 -33
13 -15 12 -16 15 -4 23 8 5 16 9 19 10 7 1 40 14 65 24 11 5 27 7 35 5 8 -2
32 -7 53 -11z m-17 -306 c-10 -61 -10 -100 -1 -125 7 -23 6 -23 -89 -23 l-96
0 -2 70 c-1 39 -2 78 -2 88 -1 15 10 17 78 19 43 1 81 4 84 8 3 3 12 5 20 5
11 0 13 -9 8 -42z m486 -10 c42 -57 52 -96 50 -191 -1 -48 -6 -96 -11 -105
-17 -33 -32 -295 -17 -309 3 -4 6 -14 6 -23 0 -17 -8 -17 -124 7 -15 3 -51 0
-80 -6 -28 -6 -119 -15 -202 -19 -149 -7 -193 -2 -222 25 -7 7 -20 13 -28 13
-7 0 -16 11 -20 25 -5 20 3 39 32 83 73 108 136 264 113 278 -5 3 -9 12 -9 20
0 16 36 19 45 4 3 -5 15 -10 26 -10 23 0 25 24 4 64 -20 39 -20 39 20 33 39
-6 145 8 154 20 6 8 220 120 232 122 4 1 18 -14 31 -31z m-709 -40 c12 -19
-22 -104 -71 -178 -37 -55 -66 -123 -63 -148 l2 -22 -37 25 c-20 14 -55 28
-76 31 -21 4 -41 11 -44 15 -3 5 -16 9 -30 9 -13 0 -24 5 -24 11 0 6 -9 9 -20
6 -11 -3 -23 -1 -26 4 -3 5 -14 9 -24 9 -11 0 -35 14 -55 31 -36 32 -47 56
-20 45 16 -6 117 10 150 24 11 5 38 14 60 21 42 13 147 61 179 81 10 7 29 23
43 36 25 25 41 25 56 0z m147 -141 c21 -17 15 -139 -8 -157 -4 -3 -18 -27 -32
-55 -14 -27 -35 -63 -47 -80 -12 -16 -25 -42 -28 -57 -4 -16 -11 -28 -16 -28
-5 0 -9 -9 -9 -19 0 -11 -4 -23 -10 -26 -5 -3 -10 -19 -10 -36 0 -28 -13 -39
-25 -20 -3 6 -27 20 -53 32 -26 12 -55 25 -64 30 -10 5 -27 9 -37 9 -11 0 -22
4 -25 9 -3 5 -25 12 -49 15 -24 4 -65 15 -91 25 -51 19 -136 85 -136 104 1 7
28 29 60 51 55 35 64 38 106 31 26 -4 54 -11 63 -15 9 -5 33 -17 54 -26 21 -9
54 -32 73 -50 l34 -34 0 55 c0 29 4 56 9 59 4 3 11 20 15 38 3 18 16 42 28 55
12 13 18 23 14 23 -4 0 2 14 14 30 17 24 29 30 58 30 20 0 44 5 52 10 20 13
42 12 60 -3z m-690 -39 c11 -12 20 -27 20 -34 0 -7 21 -24 46 -39 47 -27 51
-41 19 -59 -10 -6 -40 -32 -67 -59 l-48 -47 -49 54 c-27 30 -52 52 -55 49 -9
-9 -37 18 -30 29 3 5 17 13 30 18 13 5 40 32 60 60 20 27 40 50 45 50 4 0 17
-10 29 -22z m112 -337 c20 -11 46 -21 57 -21 12 0 21 -5 21 -11 0 -5 4 -8 9
-5 8 5 60 -9 93 -25 10 -5 27 -9 39 -9 11 0 37 -7 56 -17 34 -16 35 -17 28
-61 -12 -78 -58 -131 -220 -252 -111 -84 -205 -173 -205 -195 0 -24 -26 -17
-46 13 -26 41 -143 151 -218 206 -36 27 -66 53 -66 57 0 5 -6 9 -13 9 -37 0
-118 131 -112 179 5 43 10 48 57 55 46 7 103 23 129 37 9 4 33 11 53 14 20 4
39 11 42 16 3 5 9 7 13 5 4 -3 25 13 46 34 22 22 44 40 51 40 7 0 17 -13 23
-30 13 -37 28 -38 42 -3 20 53 29 56 58 19 14 -18 43 -43 63 -55z"/>
<path d="M1804 1614 c3 -8 2 -12 -4 -9 -17 11 -49 -14 -67 -53 -9 -20 -25 -43
-35 -50 -9 -7 -15 -19 -12 -26 3 -7 -2 -16 -10 -19 -9 -4 -16 -15 -16 -26 0
-11 -5 -23 -11 -26 -6 -4 -8 -13 -5 -21 4 -10 -2 -12 -23 -8 -32 7 -52 -13
-30 -27 11 -7 10 -9 -3 -9 -10 0 -18 -4 -18 -10 0 -5 8 -10 18 -9 23 1 54 13
53 22 -1 8 6 7 27 -1 19 -7 29 8 12 18 -8 6 -11 10 -6 10 6 0 5 5 -2 12 -17
17 -15 31 3 24 8 -3 15 -1 15 4 0 6 -4 10 -10 10 -5 0 -7 7 -3 15 5 14 8 14
22 2 21 -19 66 -33 57 -18 -4 6 0 11 9 11 11 0 15 5 12 15 -4 8 -2 17 3 20 6
4 19 27 30 53 12 26 27 59 35 74 20 36 19 38 -16 38 -24 0 -30 -4 -25 -16z"/>
</g>
</svg>
